<?xml version="1.0" encoding="UTF-8"?>
<svg version="1.1" xmlns="http://www.w3.org/2000/svg" width="557" height="557">
<path d="M0 0 C1.12234039 0.00060425 2.24468079 0.0012085 3.40103149 0.00183105 C21.07754174 0.02759238 38.58987233 0.38160848 56.1875 2.1875 C57.45400391 2.31640625 58.72050781 2.4453125 60.02539062 2.578125 C88.58686002 5.56077113 116.73800298 10.6118166 144.1875 19.1875 C145.14527344 19.48350098 146.10304688 19.77950195 147.08984375 20.08447266 C179.28769826 30.1927204 219.43290115 47.65087611 237 78.5625 C241.603049 87.56582052 243.38961149 95.23775347 243.84545898 105.29321289 C244.06002522 109.90502204 244.66152626 114.19651793 245.68676758 118.68652344 C247.44286826 127.45760849 247.39634534 136.52751552 247.4375 145.4375 C247.4684375 147.13519531 247.4684375 147.13519531 247.5 148.8671875 C247.50515625 149.96804687 247.5103125 151.06890625 247.515625 152.203125 C247.52964355 153.67700684 247.52964355 153.67700684 247.54394531 155.18066406 C247.1875 158.1875 247.1875 158.1875 245.68728638 161.11575317 C243.39681163 166.34157128 243.7884445 171.73089202 243.83447266 177.34228516 C243.83123238 179.15592056 243.83123238 179.15592056 243.82792664 181.00619507 C243.82484413 183.6260126 243.82703572 186.24521149 243.83794022 188.86494827 C243.85439084 193.01938225 243.84579203 197.17353883 243.83309937 201.32797241 C243.80306955 212.39493799 243.80436965 223.46185289 243.82335222 234.52883852 C243.83573826 241.80297332 243.83367283 249.07679083 243.80496442 256.35088956 C243.79230996 259.79822414 243.78924828 263.24496978 243.80965042 266.69227982 C243.82882128 270.54736137 243.81722243 274.4012843 243.79931641 278.25634766 C243.81265518 279.37680481 243.82599396 280.49726196 243.83973694 281.65167236 C243.66801275 298.3966362 235.20548485 310.05981501 224.0625 321.75 C215.60442908 329.92534988 198.63630852 346.1875 186.1875 346.1875 C186.00743408 348.05595581 186.00743408 348.05595581 185.82373047 349.9621582 C185.19074531 355.63544496 184.11882939 361.19659042 183.0078125 366.79296875 C182.79438202 367.87580643 182.58095154 368.9586441 182.36105347 370.07429504 C181.91088174 372.34965947 181.45862798 374.62461286 181.00439453 376.89916992 C180.31287512 380.37311555 179.63474592 383.84951035 178.95703125 387.32617188 C178.51644374 389.54443361 178.07506458 391.76253828 177.6328125 393.98046875 C177.43269562 395.01495651 177.23257874 396.04944427 177.02639771 397.11528015 C175.64814987 403.92084181 174.27350394 409.97387697 168.625 414.5 C168.02558594 414.99113281 167.42617188 415.48226563 166.80859375 415.98828125 C163.59007905 418.36920658 161.09442078 418.47179429 157.125 418.625 C156.04089844 418.68558594 154.95679688 418.74617188 153.83984375 418.80859375 C148.64631787 417.92541662 145.35405444 415.29333254 141.1875 412.1875 C140.11109253 411.41321655 140.11109253 411.41321655 139.01293945 410.62329102 C136.78660581 409.01671303 134.57922079 407.38676725 132.375 405.75 C131.56820801 405.1530835 130.76141602 404.55616699 129.93017578 403.94116211 C123.79441488 399.39516941 117.67507941 394.82710222 111.5625 390.25 C110.7583667 389.64808838 109.9542334 389.04617676 109.12573242 388.42602539 C108.3494751 387.84328857 107.57321777 387.26055176 106.7734375 386.66015625 C106.0112793 386.09441895 105.24912109 385.52868164 104.46386719 384.94580078 C102.90865821 383.74453362 101.39410961 382.48922766 99.91894531 381.19091797 C95.18165363 377.01745705 95.18165363 377.01745705 89.22265625 375.62890625 C87.54006397 375.77219092 85.86169807 375.9668009 84.1875 376.1875 C82.92534668 376.31495605 81.66319336 376.44241211 80.36279297 376.57373047 C75.77750795 377.04134102 71.2016709 377.58030344 66.625 378.125 C45.72177291 380.60482248 25.1125096 381.4277184 4.0625 381.4375 C2.10147339 381.43851212 2.10147339 381.43851212 0.10083008 381.43954468 C-21.6707671 381.4217596 -43.18691898 380.74162591 -64.8125 378.1875 C-65.55359009 378.10028687 -66.29468018 378.01307373 -67.05822754 377.92321777 C-96.65122729 374.39273026 -125.53422348 368.77603531 -153.8125 359.1875 C-154.84391113 358.83816406 -155.87532227 358.48882812 -156.93798828 358.12890625 C-181.6392312 349.62385903 -203.80444792 338.30508478 -222.8125 320.1875 C-223.43511719 319.63964844 -224.05773437 319.09179688 -224.69921875 318.52734375 C-234.45727265 309.60256187 -240.53269884 297.27354708 -241.8125 284.1875 C-241.95867941 280.27712964 -241.95624526 276.36931351 -241.9543457 272.45654297 C-241.95782013 271.29312378 -241.96129456 270.12970459 -241.96487427 268.93103027 C-241.97220778 266.41292673 -241.97756593 263.89481682 -241.98116493 261.37670517 C-241.98834822 257.39254363 -242.0036748 253.40846586 -242.02250671 249.42434692 C-242.02884265 248.05719571 -242.03516829 246.69004445 -242.04148388 245.32289314 C-242.04464969 244.63862448 -242.0478155 243.95435582 -242.05107725 243.24935174 C-242.09307936 233.98281852 -242.12615583 224.71632927 -242.13842773 215.44970703 C-242.14680843 209.18542914 -242.16929077 202.92137212 -242.2077834 196.65720475 C-242.22752801 193.34659299 -242.23773912 190.03638442 -242.23494911 186.72570419 C-242.23260392 183.03668522 -242.25470212 179.34856563 -242.2824707 175.65966797 C-242.27586929 174.56655304 -242.26926788 173.47343811 -242.26246643 172.34719849 C-242.29589964 166.40562482 -242.29589964 166.40562482 -244.76921082 161.11843872 C-245.44349625 160.48122894 -246.11778168 159.84401917 -246.8125 159.1875 C-252.75251452 147.6870246 -247.92320221 132.65261132 -244.44506836 121.08642578 C-243.8125 119.1875 -243.8125 119.1875 -242.66796875 116.73046875 C-241.33883499 112.7794821 -241.55810814 108.82751096 -241.5 104.6875 C-241.20665037 96.01015505 -239.85126025 88.98795515 -235.8125 81.1875 C-235.37550781 80.30578125 -234.93851563 79.4240625 -234.48828125 78.515625 C-227.47378589 66.0699587 -215.06587637 54.41426195 -202.8125 47.1875 C-202.10561035 46.76049805 -201.3987207 46.33349609 -200.67041016 45.89355469 C-140.49571816 9.67517954 -69.20346257 -0.06915416 0 0 Z " fill="#0D0B0A" transform="translate(276.8125,83.8125)"/>
<path d="M0 0 C0.86850586 0.17547363 1.73701172 0.35094727 2.63183594 0.53173828 C5.55865214 1.16348841 8.46617618 1.85253958 11.375 2.5625 C12.45571777 2.82571045 13.53643555 3.0889209 14.64990234 3.36010742 C53.65098066 13.03890025 103.11835615 26.48766032 125.5078125 63.21875 C127.34679661 66.64638531 128.74780364 70.12274291 129.98046875 73.80859375 C130.86637982 76.13006551 130.86637982 76.13006551 132.97265625 77.60546875 C136.25504187 81.48235196 136.50742123 85.94735863 137.25 90.875 C137.41910889 91.95458984 137.58821777 93.03417969 137.76245117 94.14648438 C139.04623401 103.27618285 139.34852148 112.29872923 139.3125 121.5 C139.31004272 122.16932556 139.30758545 122.83865112 139.30505371 123.52825928 C139.23101278 134.76898722 139.23101278 134.76898722 138 136 C136.33382885 136.04063832 134.66611905 136.042721 133 136 C131.99539469 133.87717331 130.99644398 131.75166979 130 129.625 C129.443125 128.44164062 128.88625 127.25828125 128.3125 126.0390625 C127 123 127 123 127 121 C123.28717598 118.62379263 120.3381213 118.43106606 116 119 C108.92142547 122.1932506 104.84699726 126.85392255 102 134 C99.76053807 140.16243546 99.7325127 145.8581402 99.8125 152.375 C99.81314453 153.365 99.81378906 154.355 99.81445312 155.375 C99.84550964 160.60629666 100.12201232 165.70191691 100.76635742 170.89160156 C101.14659242 174.3228549 101.2230761 177.7378756 101.25 181.1875 C101.2809375 182.19586914 101.2809375 182.19586914 101.3125 183.22460938 C101.34898989 187.90899898 100.4323926 191.01489076 98 195 C96 197 96 197 92.125 197.375 C89.02765026 197.29630146 88.17138313 197.1230443 85.5625 195.25 C82.80087503 191.27326004 82.86500459 187.52698512 82.7890625 182.765625 C82.76070313 181.55132812 82.73234375 180.33703125 82.703125 179.0859375 C82.65136278 176.54441236 82.60699809 174.00272497 82.5703125 171.4609375 C82.36141259 163.22679943 82.10690656 156.57294254 76.5 150.125 C71.43250623 145.8176303 68.33575288 145.46271773 61.828125 145.54296875 C53.75692098 146.50657168 46.08548791 149.88503782 38.90625 153.6015625 C32.0268856 156.9117943 24.13067892 157.88244772 16.625 158.9375 C3.21556636 160.95053846 -7.52835081 163.57275737 -16.8125 174 C-28.8623812 190.52555135 -28.13060644 207.86058372 -25.45703125 227.171875 C-24.39236126 236.08962363 -23.65372045 244.90692774 -28 253 C-30.65841271 255.87395969 -32.15985938 256.84247363 -36 257.5625 C-40.01735814 256.80924535 -41.45642536 255.12496313 -44 252 C-44.98327315 249.05018055 -45.12887338 247.11020492 -45.1328125 244.03515625 C-45.13410156 243.07029297 -45.13539063 242.10542969 -45.13671875 241.11132812 C-45.13285156 240.10521484 -45.12898437 239.09910156 -45.125 238.0625 C-45.12886719 237.06025391 -45.13273438 236.05800781 -45.13671875 235.02539062 C-45.13478516 233.57616211 -45.13478516 233.57616211 -45.1328125 232.09765625 C-45.13168457 231.21601807 -45.13055664 230.33437988 -45.12939453 229.42602539 C-45.00689661 227.12930501 -44.55979479 225.21958499 -44 223 C-43.77856937 219.39868201 -43.81486245 215.79496768 -43.8125 212.1875 C-43.80025391 211.21490234 -43.78800781 210.24230469 -43.77539062 209.24023438 C-43.75100095 197.23238565 -47.56921435 189.431835 -55.875 180.75 C-63.27236585 173.63660213 -69.40945999 170.83026101 -79.671875 170.97265625 C-81.45930569 170.98694506 -83.24674091 171.00067691 -85.03417969 171.01391602 C-85.96887085 171.02222443 -86.90356201 171.03053284 -87.86657715 171.03909302 C-123.21500813 171.32604368 -123.21500813 171.32604368 -139.02734375 168.44921875 C-150.97348969 166.64395359 -163.17256441 166.77549552 -173.3125 173.8125 C-180.34310487 179.54579087 -182.63811201 186.21782522 -184 195 C-184.36312874 201.36123739 -184.41996565 207.7445006 -183.5 214.0625 C-182.30312544 223.48788719 -181.6272859 231.8641758 -187 240 C-188.71797243 242.1550005 -189.5403442 242.90506248 -192.26953125 243.46875 C-199.9852304 243.56356658 -199.9852304 243.56356658 -203.5 240.8125 C-207.21418797 236.63403853 -208.25559902 233.19476382 -208.23046875 227.65625 C-208.22853516 226.65722656 -208.22660156 225.65820312 -208.22460938 224.62890625 C-208.21236328 223.59636719 -208.20011719 222.56382812 -208.1875 221.5 C-208.1865332 219.95119141 -208.1865332 219.95119141 -208.18554688 218.37109375 C-208.15865571 213.73983766 -207.92562013 209.53977641 -207 205 C-206.06491273 192.93500688 -205.36982838 180.56332428 -212 170 C-212.60457031 169.02804687 -213.20914063 168.05609375 -213.83203125 167.0546875 C-221.97767605 155.00491709 -232.99336765 149.31278604 -247.0859375 146.3515625 C-253.77586701 145.54446645 -260.41673087 144.79744368 -266.625 147.6875 C-274.53443891 155.38879579 -274.32493921 164.92090678 -274.47851562 175.26171875 C-274.67185807 181.79763658 -275.67240361 186.45318646 -279.3125 192 C-281 193 -281 193 -283.9375 193.0625 C-288.05325404 191.63458533 -289.02024012 189.81287089 -291 186 C-292.96811065 178.42536363 -292.81565768 169.70955585 -291 162.125 C-288.33383637 150.39774402 -288.95501593 138.14629156 -295.37890625 127.7734375 C-296.52332993 126.13668341 -297.75238069 124.55952414 -299 123 C-298.24074219 122.86722656 -297.48148437 122.73445313 -296.69921875 122.59765625 C-295.20841797 122.33275391 -295.20841797 122.33275391 -293.6875 122.0625 C-292.20830078 121.80146484 -292.20830078 121.80146484 -290.69921875 121.53515625 C-287.91810787 121.04253153 -287.91810787 121.04253153 -285 120 C-282.3051422 121.08517764 -279.73741755 122.2415487 -277.125 123.5 C-256.32228617 133.06115911 -233.99840696 138.53042478 -211.95733643 144.4708252 C-210.20857308 144.94361132 -208.46135487 145.42210416 -206.71435547 145.90136719 C-204.10488255 146.61568967 -201.49162605 147.31242338 -198.875 148 C-198.21105225 148.18320801 -197.54710449 148.36641602 -196.86303711 148.55517578 C-180.96185693 152.59709045 -164.15979538 152.37984705 -147.875 152.625 C-145.74087161 152.66330071 -143.60675667 152.70235879 -141.47265625 152.7421875 C-136.31521704 152.83682739 -131.15770635 152.92131987 -126 153 C-130.35268288 152.36437599 -134.70707405 151.74154625 -139.0625 151.125 C-139.71936798 151.03185516 -140.37623596 150.93871033 -141.05300903 150.84274292 C-148.62309612 149.77680113 -156.17367209 148.80354997 -163.80615234 148.29663086 C-172.00447665 147.68364216 -179.94293483 146.82325355 -187.9609375 144.96484375 C-188.89206863 144.75053711 -189.82319977 144.53623047 -190.782547 144.31542969 C-202.05671624 141.62878565 -213.08993286 138.15439836 -224.12670898 134.63427734 C-227.71815578 133.49023471 -231.31470398 132.36342978 -234.91210938 131.23828125 C-237.23729731 130.50361031 -239.5621787 129.76796832 -241.88671875 129.03125 C-242.94211349 128.70088745 -243.99750824 128.3705249 -245.08488464 128.03015137 C-251.96993911 125.8210202 -258.48377015 123.13252185 -265 120 C-261.40326524 117.60217683 -257.90000915 116.89431286 -253.75 115.96875 C-252.02588674 115.57152676 -250.30185034 115.1739698 -248.57788086 114.77612305 C-247.66843719 114.5683725 -246.75899353 114.36062195 -245.82199097 114.14657593 C-230.75220005 110.69377818 -215.78614872 106.99694995 -200.9375 102.6875 C-200.24712646 102.48721191 -199.55675293 102.28692383 -198.84545898 102.08056641 C-194.9060676 100.93396011 -190.97177787 99.7707497 -187.03884888 98.60220337 C-184.83374828 97.95089516 -182.62603533 97.30903747 -180.41772461 96.66870117 C-179.65299332 96.44620193 -178.88826202 96.2237027 -178.10035706 95.99446106 C-176.63409997 95.56805385 -175.16736235 95.14329413 -173.70005798 94.72050476 C-169.13585162 93.38894652 -164.76214595 91.81455746 -160.38671875 89.96484375 C-157.62626974 88.84891755 -154.8309186 87.92211163 -152 87 C-144.34240484 84.48995601 -136.98744708 81.45105491 -129.63452148 78.16894531 C-126.72329321 76.87722434 -123.80346635 75.60619798 -120.8828125 74.3359375 C-89.41690825 60.58978005 -58.14283391 44.57605967 -32 22 C-31.13761719 21.27167969 -30.27523438 20.54335937 -29.38671875 19.79296875 C-24.25101735 15.34306663 -19.93894135 10.72035266 -15.88671875 5.26171875 C-10.66066387 -1.00305511 -7.69902425 -1.58229657 0 0 Z " fill="#753410" transform="translate(375,107)"/>
<path d="M0 0 C1.78159515 -0.00524185 1.78159515 -0.00524185 3.59918213 -0.0105896 C32.69048725 -0.05806777 61.35871883 2.28771383 90 7.3125 C89.28199219 8.00859375 88.56398438 8.7046875 87.82421875 9.421875 C85.44670201 11.79855605 83.2871612 14.31216837 81.15917969 16.91650391 C63.85896125 38.06191231 39.5989582 52.37024257 15.85595703 65.29638672 C14.10247525 66.25639608 12.36134258 67.2388624 10.62109375 68.22265625 C-0.885214 74.59759581 -12.95092047 79.7472163 -25.0012207 84.99829102 C-27.60532034 86.13953243 -30.19605519 87.30578659 -32.78515625 88.48046875 C-36.96989247 90.34428294 -41.22979401 91.89349408 -45.5625 93.375 C-55.51481458 96.78628647 -55.51481458 96.78628647 -65.2512207 100.75756836 C-69.05031413 102.39313549 -72.91496884 103.57056742 -76.890625 104.6953125 C-77.62758606 104.90777618 -78.36454712 105.12023987 -79.12384033 105.33914185 C-80.65914483 105.78168615 -82.19493646 106.22254379 -83.73120117 106.66174316 C-85.88617608 107.27985202 -88.03831151 107.90678093 -90.18945312 108.53808594 C-109.02685575 114.06587633 -127.89157071 119.11515229 -147.00732422 123.59716797 C-153.03947357 125.03901799 -159.02495144 126.65104435 -165 128.3125 C-151.26270136 133.31680165 -137.3643419 137.78270922 -123.43261719 142.21191406 C-120.2742007 143.22458416 -117.12417154 144.2589947 -113.9765625 145.3046875 C-95.64646626 151.36586906 -78.10282374 154.57876874 -58.88037109 156.23706055 C-50.97285656 156.92108846 -43.10338489 157.70474696 -35.25 158.875 C-34.45343994 158.98980713 -33.65687988 159.10461426 -32.83618164 159.22290039 C-29.18814546 159.79365397 -26.24084633 160.5693175 -23 162.3125 C-78.78589756 162.56551852 -78.78589756 162.56551852 -99.984375 157.15625 C-100.84213531 156.93918396 -101.69989563 156.72211792 -102.58364868 156.49847412 C-112.50810121 153.96234487 -122.38008158 151.23990327 -132.23535156 148.44824219 C-134.32327013 147.85920886 -136.41279609 147.27584284 -138.50390625 146.69824219 C-151.8830788 143.00180622 -164.70303256 138.68910013 -177.46728516 133.22167969 C-185.57511913 129.66473282 -185.57511913 129.66473282 -194 131.3125 C-200.44166899 132.34316704 -204.53793482 129.64995694 -210.0546875 126.71875 C-214.80612537 124.45015897 -218.89297665 123.61015888 -224 125.3125 C-224.14179688 126.03050781 -224.28359375 126.74851562 -224.4296875 127.48828125 C-224.61789063 128.42027344 -224.80609375 129.35226563 -225 130.3125 C-225.16757813 131.17230469 -225.33515625 132.03210938 -225.5078125 132.91796875 C-227.14893137 139.78366226 -227.14893137 139.78366226 -229.75390625 141.40234375 C-231.6875 141.9375 -231.6875 141.9375 -235 142.3125 C-239.0811965 137.92819076 -238.52971977 133.26522432 -238.359375 127.60546875 C-237.7461599 117.96066163 -234.93421989 108.28443327 -231.64453125 99.2421875 C-230.94207787 97.13908464 -230.50676426 95.04610012 -230.0625 92.875 C-229 89.3125 -229 89.3125 -226.9375 88.1875 C-226.298125 87.89875 -225.65875 87.61 -225 87.3125 C-224.60235737 85.32428687 -224.28674418 83.31970923 -224 81.3125 C-217.32456341 59.56107741 -198.38631789 46.86918786 -179.34375 36.56640625 C-149.03456176 20.61529553 -116.47277643 12.53526403 -83 6.3125 C-82.2147998 6.16184082 -81.42959961 6.01118164 -80.62060547 5.85595703 C-75.10259631 4.81001156 -69.57314912 4.00392711 -64 3.3125 C-62.36321289 3.10729736 -62.36321289 3.10729736 -60.69335938 2.89794922 C-40.48086216 0.49724153 -20.34351696 0.01912329 0 0 Z " fill="#AA6E46" transform="translate(276,98.6875)"/>
<path d="M0 0 C0.66 0 1.32 0 2 0 C3.3182745 1.58675603 4.57841389 3.2219199 5.8125 4.875 C11.09138655 11.45460419 17.0859144 16.22490807 24 21 C24.9384375 21.65355469 25.876875 22.30710937 26.84375 22.98046875 C45.27612496 34.99619705 66.16423208 43.23178719 87 50 C87.76199707 50.2479834 88.52399414 50.4959668 89.30908203 50.75146484 C111.71033393 57.85760215 135.69926917 62.26365021 159 65 C159.78358887 65.09619629 160.56717773 65.19239258 161.37451172 65.29150391 C176.5926112 67.15577592 191.70703859 68.15092427 207.0390625 68.203125 C208.44161511 68.21019148 209.84416739 68.21732415 211.24671936 68.22451782 C215.70615162 68.24404248 220.165529 68.2492099 224.625 68.25 C225.76499136 68.25044186 225.76499136 68.25044186 226.92801285 68.25089264 C260.61753244 68.25300235 293.12370735 66.55515102 326.18945312 59.77197266 C329.79206897 59.04212442 333.40059409 58.36436396 337.015625 57.69921875 C376.23696614 50.23183037 427.76465055 35.09163748 453 2 C453.33 1.34 453.66 0.68 454 0 C454.66 0 455.32 0 456 0 C456.70939442 16.63135807 454.02673891 28.7535712 443.33203125 42.078125 C433.6171141 52.62942575 420.12974329 59.84036094 407.47558594 66.20825195 C406.6612207 66.63195068 405.84685547 67.05564941 405.0078125 67.4921875 C404.28223145 67.85683105 403.55665039 68.22147461 402.80908203 68.59716797 C399.15240913 71.43269327 398.6846285 75.98717232 397.88671875 80.33203125 C397.69319824 81.36642334 397.49967773 82.40081543 397.30029297 83.46655273 C396.99696045 85.12279663 396.99696045 85.12279663 396.6875 86.8125 C396.24752677 89.15391557 395.8060856 91.4950557 395.36328125 93.8359375 C395.13850098 95.02541992 394.9137207 96.21490234 394.68212891 97.44042969 C393.62646425 102.94923093 392.51156835 108.44488618 391.375 113.9375 C391.18123779 114.88794189 390.98747559 115.83838379 390.7878418 116.81762695 C389.44156726 123.28692334 387.80462678 129.64380601 386 136 C381.572548 137.25386358 381.572548 137.25386358 379.06567383 136.14233398 C378.45232178 135.68157471 377.83896973 135.22081543 377.20703125 134.74609375 C376.50368652 134.22845459 375.8003418 133.71081543 375.07568359 133.17749023 C374.32883301 132.60329346 373.58198242 132.02909668 372.8125 131.4375 C372.02439941 130.84976807 371.23629883 130.26203613 370.42431641 129.65649414 C367.93458217 127.78981132 365.46469537 125.89959509 363 124 C361.84201904 123.10861328 361.84201904 123.10861328 360.66064453 122.19921875 C356.90041151 119.29596158 353.15538197 116.37395814 349.41796875 113.44140625 C344.40659061 109.51950638 339.31833743 105.70358453 334.21240234 101.90600586 C333.59961426 101.4497583 332.98682617 100.99351074 332.35546875 100.5234375 C331.77071777 100.09643555 331.1859668 99.66943359 330.58349609 99.22949219 C329 98 329 98 326.67578125 95.6640625 C318.7961605 90.76374361 305.86387667 95.04877529 297.28125 96.40234375 C274.15607093 99.83300218 250.77954371 100.41175854 227.4375 100.375 C226.12148804 100.37445618 224.80547607 100.37391235 223.44958496 100.37335205 C182.80634725 100.31952025 143.39851164 96.11916321 104 86 C102.29321192 85.57454414 100.58622331 85.14989062 98.87890625 84.7265625 C72.09835111 77.95705832 43.64900815 67.60468795 22 50 C20.69095703 48.93652344 20.69095703 48.93652344 19.35546875 47.8515625 C10.01898892 39.87286159 1.80269625 29.49636045 0 17 C-0.11250137 14.06090164 -0.09454413 11.12816491 -0.0625 8.1875 C-0.05573242 7.00510742 -0.05573242 7.00510742 -0.04882812 5.79882812 C-0.03711312 3.86585239 -0.01917998 1.93291607 0 0 Z " fill="#F8DBB5" transform="translate(50,350)"/>
<path d="M0 0 C0.680625 0.680625 1.36125 1.36125 2.0625 2.0625 C2.52060059 2.51834473 2.97870117 2.97418945 3.45068359 3.44384766 C4.51999712 4.51787923 5.57968678 5.60154866 6.63134766 6.69287109 C29.5119179 30.20991476 63.53868628 42.27979601 94.31030273 51.35083008 C110.06226658 55.99808368 110.06226658 55.99808368 113.125 61.5 C115.24909652 65.27058554 117.01817044 67.18332597 121 69 C127.63802781 69.84740781 134.37487569 69.99679885 140 66 C140.43699219 65.46632813 140.87398437 64.93265625 141.32421875 64.3828125 C143 63 143 63 145.35546875 62.85546875 C149.78284117 63.37454 154.20851619 63.89581894 158.62818909 64.47756958 C167.83278877 65.68333891 177.0067339 66.56205859 186.27734375 67.1171875 C186.97185072 67.15930233 187.66635769 67.20141716 188.38191032 67.2448082 C204.69483013 68.21269782 220.98888684 68.23750382 237.32458496 68.1373291 C241.1480063 68.11626514 244.97145835 68.10761094 248.79492188 68.09765625 C256.19669218 68.07668425 263.5983207 68.04290885 271 68 C271.29493347 68.83042564 271.29493347 68.83042564 271.5958252 69.67762756 C271.85875366 70.40155197 272.12168213 71.12547638 272.39257812 71.87133789 C272.65107544 72.58995499 272.90957275 73.30857208 273.17590332 74.04896545 C274.20134868 76.47668949 275.42348516 77.8300225 277.5 79.4375 C278.0878125 79.91058594 278.675625 80.38367188 279.28125 80.87109375 C283.48570216 83.63265437 288.16083909 83.6812411 293 83 C298.12320799 80.99565723 301.79315093 77.98043573 304.18481445 73.00170898 C305.02456656 70.93967618 305.5856975 68.93392137 306.1015625 66.76953125 C306.39804687 65.52558594 306.69453125 64.28164063 307 63 C307.76739502 62.8548999 308.53479004 62.7097998 309.32543945 62.56030273 C357.93814977 53.29403501 416.12177016 41.19120154 451 3 C451.99724435 1.99725192 452.99687285 0.99686304 454 0 C454.17640287 3.95775661 454.28154965 7.91448505 454.375 11.875 C454.42527344 12.98359375 454.47554688 14.0921875 454.52734375 15.234375 C454.72659068 26.52503437 449.89480742 33.65215081 442.36328125 41.72265625 C418.94002214 64.29416049 382.51083744 78.56270273 351.1640625 85.09936523 C347.28213262 85.91924216 343.45503353 86.90264011 339.6171875 87.91015625 C330.88418205 90.13881589 322.08011857 91.68805143 313.1875 93.125 C312.39641846 93.2545105 311.60533691 93.384021 310.7902832 93.51745605 C300.02757868 95.27614948 289.28828155 96.96456886 278.40869141 97.80566406 C275.68972562 98.02503329 272.97676552 98.29129737 270.26171875 98.5546875 C190.2085789 105.80443689 83.38311696 100.09336341 18.17211914 47.51098633 C10.78099736 41.29666046 3.76020104 34.05078597 0 25 C-0.22705078 22.25097656 -0.22705078 22.25097656 -0.1953125 19.140625 C-0.18886719 18.02558594 -0.18242188 16.91054688 -0.17578125 15.76171875 C-0.15902344 14.60285156 -0.14226563 13.44398438 -0.125 12.25 C-0.11597656 11.07566406 -0.10695312 9.90132813 -0.09765625 8.69140625 C-0.07410063 5.79406464 -0.04120652 2.89713559 0 0 Z " fill="#D6843E" transform="translate(51,289)"/>
<path d="M0 0 C0.66 0.66 1.32 1.32 2 2 C2.46535156 2.46019531 2.93070313 2.92039062 3.41015625 3.39453125 C4.50144395 4.49654414 5.57092613 5.62045225 6.62109375 6.76171875 C34.36115696 36.17215136 80.06105534 49.43643578 118.36083984 57.44335938 C120.57720231 57.91082528 122.78339959 58.40362614 124.98828125 58.921875 C177.6823021 71.05821823 235.55418708 71.55534158 289 65 C290.74361816 64.79117188 290.74361816 64.79117188 292.52246094 64.578125 C300.38916393 63.60408783 308.19524674 62.38237187 316 61 C317.28632324 60.7736084 318.57264648 60.5472168 319.89794922 60.31396484 C365.8895216 52.0838576 419.75534501 38.0639248 452 2 C452.33 1.34 452.66 0.68 453 0 C453.66 0 454.32 0 455 0 C455.80643204 8.19872576 453.82273593 13.35339303 449 20 C421.65218695 52.64731695 374.01793807 66.68245076 334 75 C331.88401178 75.45655504 329.7681256 75.91358327 327.65234375 76.37109375 C294.9208052 83.31876608 261.8755401 85.36640872 228.49121094 85.26074219 C224.83761897 85.24928411 221.18431646 85.2561717 217.53073406 85.26762676 C202.29058834 85.30811928 187.19334483 85.09034524 172.04174805 83.24700928 C169.18664449 82.90160081 166.32575406 82.61702079 163.46484375 82.32421875 C114.05542462 76.77201285 41.53830275 64.91601285 7.8125 23.30078125 C-0.33090602 12.4089757 -0.33090602 12.4089757 -0.125 4.6875 C-0.10695312 3.80449219 -0.08890625 2.92148437 -0.0703125 2.01171875 C-0.04710937 1.34785156 -0.02390625 0.68398438 0 0 Z " fill="#D78640" transform="translate(51,327)"/>
<path d="M0 0 C0.66 0 1.32 0 2 0 C2.70939442 16.63135807 0.02673891 28.7535712 -10.66796875 42.078125 C-20.3828859 52.62942575 -33.87025671 59.84036094 -46.52441406 66.20825195 C-47.3387793 66.63195068 -48.15314453 67.05564941 -48.9921875 67.4921875 C-49.71776855 67.85683105 -50.44334961 68.22147461 -51.19091797 68.59716797 C-54.84759087 71.43269327 -55.3153715 75.98717232 -56.11328125 80.33203125 C-56.40356201 81.88361938 -56.40356201 81.88361938 -56.69970703 83.46655273 C-56.90192871 84.57071533 -57.10415039 85.67487793 -57.3125 86.8125 C-57.75247323 89.15391557 -58.1939144 91.4950557 -58.63671875 93.8359375 C-58.86149902 95.02541992 -59.0862793 96.21490234 -59.31787109 97.44042969 C-60.37353575 102.94923093 -61.48843165 108.44488618 -62.625 113.9375 C-62.81876221 114.88794189 -63.01252441 115.83838379 -63.2121582 116.81762695 C-64.55843274 123.28692334 -66.19537322 129.64380601 -68 136 C-71.57533744 137.41586271 -73.95841416 136.89803261 -77.40380859 135.53051758 C-83.06020131 132.6767919 -87.68667153 129.49940216 -91 124 C-93.76817316 113.06993028 -92.4803707 101.33469106 -91.7723999 90.19445801 C-91.52578654 86.00009054 -91.38483407 81.80223667 -91.234375 77.60351562 C-90.92493418 69.39541154 -90.50012878 61.19868697 -90 53 C-91.32 52.67 -92.64 52.34 -94 52 C-92.99324219 51.72027344 -91.98648437 51.44054687 -90.94921875 51.15234375 C-59.33219483 42.21527515 -21.64821645 29.07643478 -1 2 C-0.67 1.34 -0.34 0.68 0 0 Z " fill="#E8B67D" transform="translate(504,350)"/>
<path d="M0 0 C2.35441716 0.14241648 4.70847484 0.28884808 7.0625 0.4375 C9.02896484 0.55931641 9.02896484 0.55931641 11.03515625 0.68359375 C13.43862168 0.8753974 15.83966501 1.12647434 18.22387695 1.4855957 C22.27519859 2.03748907 26.3026589 2.34351118 30.3828125 2.546875 C31.22844757 2.58923279 32.07408264 2.63159058 32.94534302 2.67523193 C40.51156602 3.01088233 48.07615862 3.0891102 55.64867401 3.12928772 C57.74938374 3.14066397 59.85005758 3.15483867 61.95074463 3.1697998 C63.3721107 3.17965012 64.79347708 3.18945618 66.21484375 3.19921875 C66.92386715 3.20412575 67.63289055 3.20903275 68.36339951 3.21408844 C72.0097536 3.23762398 75.65581145 3.25199449 79.30224609 3.25048828 C82.89181088 3.24970051 86.48051817 3.27303589 90.06985855 3.3123703 C92.0716503 3.32777458 94.07358724 3.31753625 96.07540894 3.30670166 C106.11353103 3.44217562 106.11353103 3.44217562 109.76489258 6.40869141 C111.65332611 8.59807792 113.35255526 10.63479326 114.8125 13.125 C115.21082031 13.78757812 115.60914063 14.45015625 116.01953125 15.1328125 C117.61361217 18.16855227 118.12300921 20.63977573 118.09765625 24.01171875 C118.09282227 25.14770508 118.09282227 25.14770508 118.08789062 26.30664062 C118.07532227 27.48516602 118.07532227 27.48516602 118.0625 28.6875 C118.05798828 29.48478516 118.05347656 30.28207031 118.04882812 31.10351562 C118.0370585 33.06904257 118.01912348 35.03453085 118 37 C103.37190634 40.33696828 87.16932549 39.23779849 72.25 39.25 C71.16360229 39.25167175 70.07720459 39.25334351 68.95788574 39.25506592 C54.33763353 39.25640423 39.81907127 38.87439036 25.25 37.625 C24.51189087 37.56187622 23.77378174 37.49875244 23.01330566 37.43371582 C13.62699616 36.60745804 4.31385689 35.4220883 -5 34 C-6.93824172 20.99027187 -7.44999107 11.1749866 0 0 Z " fill="#F6D9B3" transform="translate(205,288)"/>
<path d="M0 0 C0.66 0 1.32 0 2 0 C3.3182745 1.58675603 4.57841389 3.2219199 5.8125 4.875 C11.09138655 11.45460419 17.0859144 16.22490807 24 21 C24.9384375 21.65355469 25.876875 22.30710937 26.84375 22.98046875 C54.00506754 40.68643515 86.33667047 51.71795675 118.07373047 57.6574707 C120.06200824 58.04388139 122.03363269 58.51424152 124 59 C125.39227987 61.78455973 125.02776844 63.95836907 124.9140625 67.06640625 C124.87023437 68.27361328 124.82640625 69.48082031 124.78125 70.72460938 C124.70390625 72.62436523 124.70390625 72.62436523 124.625 74.5625 C124.58117187 75.83287109 124.53734375 77.10324219 124.4921875 78.41210938 C124.12815714 87.87184286 124.12815714 87.87184286 123 89 C113.73459666 89.02388464 105.19138603 87.02441365 96.375 84.375 C94.53651489 83.83214355 94.53651489 83.83214355 92.66088867 83.27832031 C61.86422872 74.0524617 22.57145142 60.95324548 5.33203125 31.5078125 C1.14822824 23.63097517 -0.15893596 17.03735353 -0.0625 8.1875 C-0.05573242 7.00510742 -0.05573242 7.00510742 -0.04882812 5.79882812 C-0.03711312 3.86585239 -0.01917998 1.93291607 0 0 Z " fill="#FBEBD4" transform="translate(50,350)"/>
<path d="M0 0 C0.680625 0.680625 1.36125 1.36125 2.0625 2.0625 C2.52060059 2.51834473 2.97870117 2.97418945 3.45068359 3.44384766 C4.51999712 4.51787923 5.57968678 5.60154866 6.63134766 6.69287109 C29.5119179 30.20991476 63.53868628 42.27979601 94.31030273 51.35083008 C108.88739694 55.65146549 108.88739694 55.65146549 111.75 59.12109375 C112.1625 59.88550781 112.575 60.64992188 113 61.4375 C115.75780956 66.53082952 117.13449468 66.64828268 123 70 C123 76.27 123 82.54 123 89 C112.44452649 88.59402025 103.00934952 86.10690209 93 83 C91.98921387 82.69030273 90.97842773 82.38060547 89.93701172 82.06152344 C57.15502261 71.91647443 19.58311925 58.05313955 0.92138672 27.21777344 C-0.24864726 24.40150723 -0.22639113 22.1863303 -0.1953125 19.140625 C-0.18886719 18.02558594 -0.18242188 16.91054688 -0.17578125 15.76171875 C-0.15902344 14.60285156 -0.14226563 13.44398438 -0.125 12.25 C-0.11597656 11.07566406 -0.10695312 9.90132813 -0.09765625 8.69140625 C-0.07410063 5.79406464 -0.04120652 2.89713559 0 0 Z " fill="#EBB37F" transform="translate(51,289)"/>
<path d="M0 0 C1.43509221 2.87018441 1.11158506 5.33543723 1.09765625 8.5390625 C1.09282227 10.49199219 1.09282227 10.49199219 1.08789062 12.484375 C1.07953466 13.86458399 1.07106971 15.24479232 1.0625 16.625 C1.05748501 18.01301926 1.0529221 19.40104022 1.04882812 20.7890625 C1.03700976 24.19275132 1.02053434 27.59635439 1 31 C-6.64787408 34.04898303 -14.31272614 37.05169194 -22 40 C-22.69109863 40.26538574 -23.38219727 40.53077148 -24.09423828 40.80419922 C-44.47768734 48.48417877 -70.09213197 56 -92 56 C-92.82102132 36.54635597 -92.82102132 36.54635597 -88 28 C-87.45738525 27.01229614 -87.45738525 27.01229614 -86.90380859 26.00463867 C-84.16715014 21.66232292 -81.98905682 19.55907735 -76.9296875 18.37109375 C-74.91630836 18.02992289 -72.89736804 17.72055588 -70.875 17.4375 C-68.62137485 17.05148697 -66.36879631 16.65932427 -64.1171875 16.26171875 C-62.36293457 15.96080322 -62.36293457 15.96080322 -60.57324219 15.65380859 C-54.66144363 14.57210618 -48.83262884 13.19373208 -43 11.75 C-41.84483887 11.46439209 -40.68967773 11.17878418 -39.49951172 10.88452148 C-30.0398991 8.4513143 -20.91195611 5.30856446 -11.81640625 1.75683594 C-10.84574219 1.38333008 -9.87507813 1.00982422 -8.875 0.625 C-8.02679688 0.28726562 -7.17859375 -0.05046875 -6.3046875 -0.3984375 C-3.74143853 -1.06748893 -2.43562899 -1.00672665 0 0 Z " fill="#F7D8B0" transform="translate(448,265)"/>
<path d="M0 0 C0.33 0 0.66 0 1 0 C1.17640287 3.95775661 1.28154965 7.91448505 1.375 11.875 C1.42527344 12.98359375 1.47554688 14.0921875 1.52734375 15.234375 C1.72659068 26.52503437 -3.10519258 33.65215081 -10.63671875 41.72265625 C-29.04825352 59.46468067 -53.9719527 69.49083436 -77.625 78.125 C-78.72271729 78.5279126 -79.82043457 78.9308252 -80.95141602 79.34594727 C-82.47980103 79.89013306 -82.47980103 79.89013306 -84.0390625 80.4453125 C-84.94865723 80.77031738 -85.85825195 81.09532227 -86.79541016 81.43017578 C-89 82 -89 82 -91 81 C-90.67 71.43 -90.34 61.86 -90 52 C-90.66 51.67 -91.32 51.34 -92 51 C-91.39341553 50.81002441 -90.78683105 50.62004883 -90.16186523 50.42431641 C-39.32094284 34.39253659 -39.32094284 34.39253659 0 0 Z " fill="#B75B12" transform="translate(504,289)"/>
<path d="M0 0 C2.6877438 0.14209669 5.37513302 0.2885723 8.0625 0.4375 C8.81466797 0.47681641 9.56683594 0.51613281 10.34179688 0.55664062 C14.94717179 0.81581757 19.43187774 1.33837633 24 2 C56.02475251 5.51135967 88.88003789 4.9155675 121 3 C120.67 8.61 120.34 14.22 120 20 C105.12286267 21.84403036 90.54477704 22.35787643 75.5625 22.3125 C74.40878906 22.31167419 73.25507813 22.31084839 72.06640625 22.30999756 C47.51886113 22.26973484 23.24805384 21.01215674 -1 17 C-1.93559313 12.86191761 -1.84521877 9.87734754 -1.0625 5.6875 C-0.86785156 4.61886719 -0.67320312 3.55023438 -0.47265625 2.44921875 C-0.31667969 1.64097656 -0.16070312 0.83273437 0 0 Z " fill="#F5D9B3" transform="translate(201,329)"/>
<path d="M0 0 C0.66 0.66 1.32 1.32 2 2 C2.46535156 2.46019531 2.93070313 2.92039062 3.41015625 3.39453125 C4.50144395 4.49654414 5.57092613 5.62045225 6.62109375 6.76171875 C34.48011338 36.29827075 80.34070894 49.57683355 118.86230469 57.49438477 C121 58 121 58 123 59 C123 64.28 123 69.56 123 75 C85.76454079 72.2919666 36.09428215 53.61269943 10 26 C-0.35268084 13.22553133 -0.35268084 13.22553133 -0.125 4.6875 C-0.10695312 3.80449219 -0.08890625 2.92148437 -0.0703125 2.01171875 C-0.04710937 1.34785156 -0.02390625 0.68398438 0 0 Z " fill="#EAB37F" transform="translate(51,327)"/>
<path d="M0 0 C1.69189453 0.65355469 1.69189453 0.65355469 3.41796875 1.3203125 C13.18353809 5.0335365 22.94954156 8.28998738 33.05541992 10.95751953 C43.72038102 13.83649311 43.72038102 13.83649311 46.17626953 17.98876953 C49.25575541 24.69654727 49.49082356 30.84471857 49.25 38.125 C49.23195312 39.176875 49.21390625 40.22875 49.1953125 41.3125 C49.14870351 43.87599422 49.0833027 46.43748094 49 49 C30.78556002 46.66244163 12.38668953 40.16439301 -4 32 C-3.76603516 30.87658203 -3.76603516 30.87658203 -3.52734375 29.73046875 C-2.65654138 23.57034826 -2.63959403 17.36053462 -2.48242188 11.14648438 C-2.44826172 10.14552734 -2.41410156 9.14457031 -2.37890625 8.11328125 C-2.3538501 7.20360596 -2.32879395 6.29393066 -2.30297852 5.35668945 C-2 3 -2 3 0 0 Z " fill="#F9EBD4" transform="translate(111,264)"/>
<path d="M0 0 C2 1 2 1 3.3125 3.3125 C5.18621887 6.29657079 7.19013187 7.91061088 10 10 C10.99 10.99 10.99 10.99 12 12 C-10.94228765 22.83022473 -34.19879974 31.54606018 -59 37 C-60.07072754 37.24121582 -61.14145508 37.48243164 -62.24462891 37.73095703 C-65.49350535 38.45980703 -68.74548179 39.17180008 -72 39.875 C-72.98508545 40.09067627 -73.9701709 40.30635254 -74.98510742 40.52856445 C-75.91814697 40.72281006 -76.85118652 40.91705566 -77.8125 41.1171875 C-78.62332031 41.28847168 -79.43414062 41.45975586 -80.26953125 41.63623047 C-83.81706449 42.10885426 -87.42112234 42 -91 42 C-91.66 36.72 -92.32 31.44 -93 26 C-90.16716881 25.39340463 -87.33376022 24.7897288 -84.5 24.1875 C-83.72785156 24.02185547 -82.95570313 23.85621094 -82.16015625 23.68554688 C-77.59491147 22.71771498 -73.02723572 21.82529769 -68.4309845 21.01577759 C-59.05129293 19.34055081 -49.95866433 16.96573477 -40.8125 14.3125 C-40.05695831 14.09578644 -39.30141663 13.87907288 -38.52297974 13.65579224 C-18.82882795 7.99524967 -18.82882795 7.99524967 0 0 Z " fill="#F5D8B1" transform="translate(450,302)"/>
<path d="M0 0 C0.87011719 0.00902344 1.74023438 0.01804687 2.63671875 0.02734375 C4.7579342 0.05065381 6.87900562 0.08651421 9 0.125 C9.495 2.6 9.495 2.6 10 5.125 C3.31366472 8.8007787 -3.68321863 11.131919 -10.90924072 13.49887085 C-40.33192987 23.18976241 -70.20883993 36.22707197 -92.92578125 57.88671875 C-93.41747803 58.35158691 -93.9091748 58.81645508 -94.41577148 59.29541016 C-95.80753935 60.6231432 -97.18161219 61.96935131 -98.5546875 63.31640625 C-101 65.125 -101 65.125 -103.3203125 64.90234375 C-103.87460938 64.64582031 -104.42890625 64.38929688 -105 64.125 C-105.73295056 61.46225555 -106.19387632 59.71554282 -105.3203125 57.0546875 C-96.00703316 41.04558641 -82.95741597 30.20421943 -67 21.125 C-66.42411133 20.79258301 -65.84822266 20.46016602 -65.25488281 20.11767578 C-50.29642569 11.53771506 -34.78865657 5.91772648 -18 2.125 C-16.73414063 1.76277344 -15.46828125 1.40054688 -14.1640625 1.02734375 C-9.44276105 -0.16300135 -4.84220188 -0.09669528 0 0 Z " fill="#DAA578" transform="translate(190,117.875)"/>
<path d="M0 0 C0.66 0 1.32 0 2 0 C2.80643204 8.19872576 0.82273593 13.35339303 -4 20 C-24.59438594 44.5851997 -57.74450605 58.58218901 -88 67 C-88.66 67 -89.32 67 -90 67 C-90 61.39 -90 55.78 -90 50 C-87.09960938 49.07380859 -87.09960938 49.07380859 -84.140625 48.12890625 C-53.63140253 38.25896855 -22.8998132 26.49377166 -1 2 C-0.67 1.34 -0.34 0.68 0 0 Z " fill="#B75B12" transform="translate(504,327)"/>
<path d="M0 0 C0.61875 0.639375 1.2375 1.27875 1.875 1.9375 C7.49921805 7.52994281 13.03864939 13.00134523 20 16.875 C22.75889928 18.61137017 23.80420031 19.40151792 24.828125 22.53125 C25.10996639 24.43106972 25.3546812 26.33675856 25.5625 28.24609375 C26.47257432 33.97468659 29.59407438 37.77745599 33.875 41.5 C37.72642338 43.34868322 39.76810971 43.65667263 44 43 C46.19302681 41.86707102 48.18349769 40.60918462 50.203125 39.19140625 C52 38 52 38 55 37 C57.27880141 37.90113461 59.42529922 38.87014048 61.625 39.9375 C68.85177039 43.27621837 76.22612504 45.84976871 83.8125 48.25 C84.84906738 48.57863037 85.88563477 48.90726074 86.95361328 49.24584961 C93.5969215 51.32009802 100.27629513 53.20405575 107 55 C107 60.61 107 66.22 107 72 C98.56340204 70.53486562 90.6045436 68.10733109 82.5 65.375 C81.83803619 65.15313019 81.17607239 64.93126038 80.49404907 64.70266724 C69.69910811 61.07104239 59.20899671 57.06883696 49 52 C47.92903076 51.47672119 47.92903076 51.47672119 46.83642578 50.94287109 C36.51515526 45.85871506 27.09072112 40.05135783 18 33 C16.73736328 32.03320312 16.73736328 32.03320312 15.44921875 31.046875 C8.58226295 25.40150201 0.89439735 17.57135015 -0.5625 8.49609375 C-0.5625 5.60331459 -0.41743052 2.86017209 0 0 Z " fill="#F7E9D2" transform="translate(51,265)"/>
<path d="M0 0 C2.64360977 0.36700873 3.77441381 0.75410556 5.60546875 2.75 C6.12753906 3.4925 6.64960937 4.235 7.1875 5 C22.22910169 25.01324689 45.80649812 34.43859038 69 42 C70.03092773 42.33644531 71.06185547 42.67289063 72.12402344 43.01953125 C78.06847644 44.95263116 84.01944514 46.86411162 89.9765625 48.7578125 C94.33456669 50.14331886 98.6837222 51.55045539 103.0234375 52.9921875 C121.35353374 59.05336906 138.89717626 62.26626874 158.11962891 63.92456055 C166.02714344 64.60858846 173.89661511 65.39224696 181.75 66.5625 C182.54656006 66.67730713 183.34312012 66.79211426 184.16381836 66.91040039 C187.81185454 67.48115397 190.75915367 68.2568175 194 70 C138.21410244 70.25301852 138.21410244 70.25301852 117.015625 64.84375 C116.15786469 64.62668396 115.30010437 64.40961792 114.41635132 64.18597412 C104.49189879 61.64984487 94.61991842 58.92740327 84.76464844 56.13574219 C82.67672987 55.54670886 80.58720391 54.96334284 78.49609375 54.38574219 C51.84100665 47.02139866 18.62823978 37.68882462 3.25 12.375 C2.47392322 10.93037515 1.71688152 9.47489559 1 8 C0.67 7.34 0.34 6.68 0 6 C-0.039992 4.00039988 -0.04346799 1.99952758 0 0 Z " fill="#B46F3E" transform="translate(59,191)"/>
<path d="M0 0 C0.680625 0.680625 1.36125 1.36125 2.0625 2.0625 C2.52156738 2.51882813 2.98063477 2.97515625 3.45361328 3.4453125 C4.51514068 4.51253803 5.56507757 5.59138023 6.60498047 6.6796875 C10.78536778 11.00298378 15.19217944 14.57086452 20.125 18 C20.7953125 18.48210937 21.465625 18.96421875 22.15625 19.4609375 C28.56379494 23.96289286 34.96317768 27.21094183 42 31 C42 41.23 42 51.46 42 62 C32.71330522 57.35665261 25.83482636 53.34816263 18 47 C17.17242187 46.33871094 16.34484375 45.67742187 15.4921875 44.99609375 C9.02453734 39.56984489 3.27394672 32.87477172 0 25 C-0.22705078 22.25097656 -0.22705078 22.25097656 -0.1953125 19.140625 C-0.18886719 18.02558594 -0.18242188 16.91054688 -0.17578125 15.76171875 C-0.15902344 14.60285156 -0.14226563 13.44398438 -0.125 12.25 C-0.11597656 11.07566406 -0.10695312 9.90132813 -0.09765625 8.69140625 C-0.07410063 5.79406464 -0.04120652 2.89713559 0 0 Z " fill="#D8853F" transform="translate(51,289)"/>
<path d="M0 0 C0.66 0 1.32 0 2 0 C3.3182745 1.58675603 4.57841389 3.2219199 5.8125 4.875 C15.88470845 17.42900061 30.58720216 26.2175069 45 33 C44.505 33.99 44.505 33.99 44 35 C43.84558791 37.10374996 43.75007361 39.21195119 43.68359375 41.3203125 C43.62075195 43.20556641 43.62075195 43.20556641 43.55664062 45.12890625 C43.51732422 46.44761719 43.47800781 47.76632812 43.4375 49.125 C43.39430488 50.46485751 43.35069027 51.80470156 43.30664062 53.14453125 C43.20029019 56.42957815 43.09826192 59.71470281 43 63 C25.31467246 54.46912457 9.67785568 42.53172642 1.7265625 24.10546875 C-0.10960119 18.7845428 -0.12313058 13.7515219 -0.0625 8.1875 C-0.05573242 7.00510742 -0.05573242 7.00510742 -0.04882812 5.79882812 C-0.03711312 3.86585239 -0.01917998 1.93291607 0 0 Z " fill="#F6DAB5" transform="translate(50,350)"/>
<path d="M0 0 C1.43509221 2.87018441 1.11158506 5.33543723 1.09765625 8.5390625 C1.09443359 9.84101563 1.09121094 11.14296875 1.08789062 12.484375 C1.07953466 13.86458399 1.07106971 15.24479232 1.0625 16.625 C1.05748501 18.01301926 1.0529221 19.40104022 1.04882812 20.7890625 C1.03700976 24.19275132 1.02053434 27.59635439 1 31 C-2.66629083 32.43845983 -6.33310061 33.87559228 -10 35.3125 C-11.54494141 35.91868164 -11.54494141 35.91868164 -13.12109375 36.53710938 C-15.14607995 37.33033645 -17.17210503 38.12091715 -19.19921875 38.90869141 C-20.93432413 39.58476542 -22.6666968 40.26795664 -24.39453125 40.96240234 C-27.86837921 42.33276769 -30.20621825 43 -34 43 C-34 32.44 -34 21.88 -34 11 C-35.32 10.67 -36.64 10.34 -38 10 C-37.34443115 9.83274414 -36.6888623 9.66548828 -36.01342773 9.49316406 C-27.8182974 7.33864369 -19.92918393 4.55682989 -11.99023438 1.609375 C-11.01505859 1.25875 -10.03988281 0.908125 -9.03515625 0.546875 C-8.1625415 0.22557617 -7.28992676 -0.09572266 -6.39086914 -0.42675781 C-3.79602404 -1.04890591 -2.4536816 -1.01314189 0 0 Z " fill="#E8B67D" transform="translate(448,265)"/>
<path d="M0 0 C-5.14082545 15.25927554 -23.19552692 25.21227804 -36.6875 32.0625 C-53.73114679 40.45659583 -71.71525477 45.14411517 -90 50 C-90.80421387 50.21398437 -91.60842773 50.42796875 -92.43701172 50.6484375 C-95.4137924 51.43976085 -98.39140449 52.2274999 -101.37109375 53.0078125 C-104.19069422 53.77872587 -106.98670478 54.58757864 -109.78515625 55.4296875 C-131.44851769 61.9187222 -151.33522561 64.70606774 -174 64 C-174 63.34 -174 62.68 -174 62 C-173.30181152 61.92185059 -172.60362305 61.84370117 -171.88427734 61.76318359 C-151.70675456 59.34886203 -132.94634435 54.26930479 -113.59692383 48.16113281 C-111.63892926 47.54331982 -109.68084167 46.92580156 -107.72265625 46.30859375 C-106.30657829 45.86188828 -106.30657829 45.86188828 -104.8618927 45.40615845 C-97.65417707 43.1537299 -90.43801837 41.25712929 -83.0625 39.625 C-56.07045392 33.53347181 -22.4529984 22.62258299 -3.453125 1.43359375 C-2 0 -2 0 0 0 Z " fill="#B36D3E" transform="translate(492,198)"/>
<path d="M0 0 C2 1 2 1 3.3125 3.3125 C5.18621887 6.29657079 7.19013187 7.91061088 10 10 C10.66 10.66 11.32 11.32 12 12 C0.63517261 17.36492422 -10.84925661 22.22706742 -22.625 26.625 C-23.81649658 27.07472168 -25.00799316 27.52444336 -26.2355957 27.98779297 C-27.90174927 28.60098389 -27.90174927 28.60098389 -29.6015625 29.2265625 C-30.59494629 29.59346191 -31.58833008 29.96036133 -32.61181641 30.33837891 C-35 31 -35 31 -37 30 C-36.67 25.05 -36.34 20.1 -36 15 C-37.65 15.66 -39.3 16.32 -41 17 C-41.66 16.34 -42.32 15.68 -43 15 C-42.30140869 14.79431396 -41.60281738 14.58862793 -40.88305664 14.37670898 C-22.60582172 8.98985754 -22.60582172 8.98985754 -4.90258789 1.99584961 C-3.28957873 1.28072749 -1.64709523 0.6326733 0 0 Z " fill="#E6B77E" transform="translate(450,302)"/>
<path d="M0 0 C4.32751838 1.48257574 7.6002601 3.70019507 11.25 6.4375 C12.30703125 7.21996094 13.3640625 8.00242188 14.453125 8.80859375 C17.15749261 11.13551128 17.87844701 12.3883503 18.14526367 15.92602539 C18.17013779 18.30511422 18.1893237 20.68325522 18.1875 23.0625 C18.18814453 23.91561768 18.18878906 24.76873535 18.18945312 25.64770508 C18.13898717 31.66863726 17.53291853 37.1557481 16 43 C10.86221719 40.29590378 6.91440835 37.4035383 2.875 33.25 C2.35655518 32.72212891 1.83811035 32.19425781 1.30395508 31.65039062 C-2.4732088 27.72314473 -5.61594674 23.94470307 -8 19 C-7.72961748 16.42881525 -7.10711129 15.14119215 -5.5390625 13.07421875 C-3.77399305 10.69540688 -3.14107252 8.66212142 -2.375 5.8125 C-1.08853119 1.08853119 -1.08853119 1.08853119 0 0 Z " fill="#F4DCB9" transform="translate(59,234)"/>
<path d="M0 0 C0.66 0.66 1.32 1.32 2 2 C2.46535156 2.46019531 2.93070313 2.92039062 3.41015625 3.39453125 C4.50144395 4.49654414 5.57092613 5.62045225 6.62109375 6.76171875 C16.91547944 17.67598143 29.91133099 24.96271562 43 32 C42.67 37.28 42.34 42.56 42 48 C33.19217603 43.99644365 25.66649778 38.83163648 18 33 C17.21109375 32.40058594 16.4221875 31.80117188 15.609375 31.18359375 C8.9574861 25.74947191 2.59557781 18.2928711 0 10 C-0.1953125 7.32421875 -0.1953125 7.32421875 -0.125 4.6875 C-0.10695312 3.80449219 -0.08890625 2.92148437 -0.0703125 2.01171875 C-0.04710937 1.34785156 -0.02390625 0.68398438 0 0 Z " fill="#D67E36" transform="translate(51,327)"/>
<path d="M0 0 C2.78564948 1.39282474 2.8489485 2.91666043 3.875 5.8125 C5.35316421 9.69684881 6.65453597 12.37142112 10 15 C7.28488355 22.59697608 1.7920598 28.51278545 -4 34 C-4.86625 34.928125 -5.7325 35.85625 -6.625 36.8125 C-9 39 -9 39 -12 39 C-12.08742801 34.79179855 -12.14053641 30.58383224 -12.1875 26.375 C-12.21263672 25.18519531 -12.23777344 23.99539063 -12.26367188 22.76953125 C-12.32296796 15.69353222 -12.31729767 10.52416702 -7.24609375 5.13671875 C-6.64925781 4.65847656 -6.05242187 4.18023437 -5.4375 3.6875 C-4.83808594 3.19636719 -4.23867188 2.70523438 -3.62109375 2.19921875 C-2 1 -2 1 0 0 Z " fill="#E6B984" transform="translate(495,236)"/>
<path d="M0 0 C2.64360977 0.36700873 3.77441381 0.75410556 5.60546875 2.75 C6.12753906 3.4925 6.64960937 4.235 7.1875 5 C18.25922069 19.73121574 32.70594975 27.1919112 49 35 C43.98095389 38.34603074 38.93288719 38.65009296 33 38 C27.76358983 35.69897835 23.43650836 32.5784026 19 29 C18.44328613 28.55479004 17.88657227 28.10958008 17.31298828 27.65087891 C10.39746302 22.0020082 5.00412723 16.08738741 1 8 C0.67 7.34 0.34 6.68 0 6 C-0.039992 4.00039988 -0.04346799 1.99952758 0 0 Z " fill="#CF9C75" transform="translate(59,191)"/>
<path d="M0 0 C0.61875 0.639375 1.2375 1.27875 1.875 1.9375 C7.49921805 7.52994281 13.03864939 13.00134523 20 16.875 C22.75889928 18.61137017 23.80420031 19.40151792 24.828125 22.53125 C25.10996639 24.43106972 25.3546812 26.33675856 25.5625 28.24609375 C26.47796924 34.00864564 29.56606409 37.83492707 34 41.4375 C36.76855745 42.87945701 38.91827283 43.63744386 42 44 C42.33 44.99 42.66 45.98 43 47 C42.01 47.495 42.01 47.495 41 48 C38.6536541 46.83296932 36.47752661 45.61705598 34.25 44.25 C33.25105713 43.63970947 33.25105713 43.63970947 32.23193359 43.01708984 C20.79980188 35.88246786 10.82905324 28.09547942 3 17 C2.14535156 15.79923828 2.14535156 15.79923828 1.2734375 14.57421875 C-0.29104839 11.41165371 -0.30313865 9.19520576 -0.1875 5.6875 C-0.16042969 4.61886719 -0.13335937 3.55023438 -0.10546875 2.44921875 C-0.07066406 1.64097656 -0.03585938 0.83273437 0 0 Z " fill="#F4DCBC" transform="translate(51,265)"/>
<path d="M0 0 C0.33 0 0.66 0 1 0 C1.89459013 8.71397051 0.52649061 14.1830098 -5 21 C-9.10139757 25.56672071 -13.39464181 29.94168712 -18 34 C-18.66 34 -19.32 34 -20 34 C-21.93260493 21.76016876 -21.93260493 21.76016876 -18.83691406 17.33886719 C-15.75062017 14.21604911 -12.18091882 11.74095993 -8.60302734 9.21679688 C-5.67613136 6.99510184 -3.46998278 4.20178566 -1.171875 1.36328125 C-0.78515625 0.91339844 -0.3984375 0.46351563 0 0 Z " fill="#EBBC86" transform="translate(504,265)"/>
<path d="M0 0 C0.99 0.33 1.98 0.66 3 1 C2.99214478 1.90709717 2.99214478 1.90709717 2.98413086 2.83251953 C2.96322642 5.59666894 2.95029721 8.36080165 2.9375 11.125 C2.92912109 12.07632812 2.92074219 13.02765625 2.91210938 14.0078125 C2.89542531 18.81282274 3.11070485 23.26398631 4 28 C4.0869536 29.93599624 4.13030216 31.87455928 4.125 33.8125 C4.12757813 34.76769531 4.13015625 35.72289062 4.1328125 36.70703125 C4 39 4 39 3 40 C0.625 40.375 0.625 40.375 -2 40 C-5.59211472 35.67917466 -5.50235278 31.4793739 -5.4375 26.125 C-5.43355225 25.29307129 -5.42960449 24.46114258 -5.42553711 23.60400391 C-5.27640536 17.06841412 -4.87351669 4.87351669 0 0 Z " fill="#B06B3D" transform="translate(172,301)"/>
<path d="M0 0 C0.99 0.33 1.98 0.66 3 1 C3.90336594 3.71009782 4.16958326 5.53782605 4.28125 8.34375 C4.31863281 9.17777344 4.35601562 10.01179688 4.39453125 10.87109375 C4.46484375 12.62369792 4.53515625 14.37630208 4.60546875 16.12890625 C4.64285156 16.96292969 4.68023437 17.79695313 4.71875 18.65625 C4.74904297 19.41744141 4.77933594 20.17863281 4.81054688 20.96289062 C4.9409768 23.20129649 4.9409768 23.20129649 6 26 C6.203125 28.15625 6.203125 28.15625 6.25 30.5 C6.28867188 31.66015625 6.28867188 31.66015625 6.328125 32.84375 C5.92123125 35.51762324 5.13392995 36.38919366 3 38 C0.27099097 37.91471847 -0.71973141 37.29465891 -2.59765625 35.3203125 C-8.219335 26.01870477 -2.34035187 9.80022344 0 0 Z " fill="#B06C3C" transform="translate(87,255)"/>
<path d="M0 0 C0.66 0.33 1.32 0.66 2 1 C3.10866353 4.3259906 3.01605203 6.53328351 2.84375 10.0234375 C2.79089844 11.209375 2.73804688 12.3953125 2.68359375 13.6171875 C2.5615787 16.11460197 2.43918525 18.61199797 2.31640625 21.109375 C2.26355469 22.29789062 2.21070313 23.48640625 2.15625 24.7109375 C2.10275391 25.79681152 2.04925781 26.88268555 1.99414062 28.00146484 C1.99969232 30.84254403 2.38395294 33.23874787 3 36 C3.1875 39.6875 3.1875 39.6875 3 43 C2.34 43.66 1.68 44.32 1 45 C-1.93453261 44.63318342 -2.86437246 44.13562754 -5 42 C-5.26271731 39.20175514 -5.37977899 36.55161097 -5.375 33.75 C-5.37556396 32.92258301 -5.37612793 32.09516602 -5.37670898 31.24267578 C-4.92892997 4.92892997 -4.92892997 4.92892997 0 0 Z " fill="#A76539" transform="translate(335,311)"/>
<path d="M0 0 C1.92089844 0.33374023 1.92089844 0.33374023 4 1 C7.13035688 7.57954641 8.69714864 14.74965417 8 22 C7 23 7 23 4.5625 23.1875 C2 23 2 23 0 21 C-0.22705078 18.84521484 -0.22705078 18.84521484 -0.1953125 16.2109375 C-0.18886719 15.26992188 -0.18242187 14.32890625 -0.17578125 13.359375 C-0.15902344 12.37453125 -0.14226562 11.3896875 -0.125 10.375 C-0.11597656 9.38242187 -0.10695313 8.38984375 -0.09765625 7.3671875 C-0.07404116 4.91121866 -0.04110799 2.45572832 0 0 Z " fill="#AD6A3C" transform="translate(458,275)"/>
<path d="M0 0 C2.48063781 12.48519362 2.48063781 12.48519362 1 19 C-0.98 19 -2.96 19 -5 19 C-5.02701408 16.89590361 -5.04640223 14.79170822 -5.0625 12.6875 C-5.07410156 11.51574219 -5.08570313 10.34398437 -5.09765625 9.13671875 C-4.99399335 5.80706641 -4.74039928 3.83294919 -2.5 1.3125 C-1 0 -1 0 0 0 Z " fill="#C7895C" transform="translate(43,216)"/>
<path d="M0 0 C0.556875 0.7425 1.11375 1.485 1.6875 2.25 C5.0785763 6.28263127 7.6182734 8.6085108 12.75 10.0625 C13.8225 10.371875 14.895 10.68125 16 11 C16.33 11.99 16.66 12.98 17 14 C16.01 14.495 16.01 14.495 15 15 C12.44287203 13.6340255 10.0153013 12.22194296 7.5625 10.6875 C6.88123047 10.27048828 6.19996094 9.85347656 5.49804688 9.42382812 C2.62975395 7.66239848 -0.19882591 5.8674494 -3 4 C-3 3.34 -3 2.68 -3 2 C-2.01 2 -1.02 2 0 2 C0 1.34 0 0.68 0 0 Z " fill="#DCC9B0" transform="translate(77,298)"/>
<path d="M0 0 C0.66 0 1.32 0 2 0 C2 5.61 2 11.22 2 17 C1.34 17.33 0.68 17.66 0 18 C-0.19430855 15.3753399 -0.38073238 12.75053235 -0.5625 10.125 C-0.61857422 9.37863281 -0.67464844 8.63226563 -0.73242188 7.86328125 C-1.11328125 2.2265625 -1.11328125 2.2265625 0 0 Z " fill="#B58F64" transform="translate(504,350)"/>
<path d="M0 0 C1.98 0.66 3.96 1.32 6 2 C6 2.33 6 2.66 6 3 C-0.02596573 4.0712828 -5.88909517 4.09945415 -12 4 C-12 3.67 -12 3.34 -12 3 C-10.82630859 2.80083984 -10.82630859 2.80083984 -9.62890625 2.59765625 C-8.61699219 2.42105469 -7.60507813 2.24445313 -6.5625 2.0625 C-5.55316406 1.88847656 -4.54382813 1.71445313 -3.50390625 1.53515625 C-1.0712562 1.25248903 -1.0712562 1.25248903 0 0 Z " fill="#85461E" transform="translate(88,227)"/>
<path d="M0 0 C0.33 0 0.66 0 1 0 C1.33 3.63 1.66 7.26 2 11 C2.99 11.33 3.98 11.66 5 12 C3.625 13.5 3.625 13.5 2 15 C1.34 15 0.68 15 0 15 C0 10.05 0 5.1 0 0 Z " fill="#B2916A" transform="translate(484,284)"/>
<path d="M0 0 C3.2910841 3.60957611 4.54663921 6.12637153 5 11 C1.87729874 8.48169253 1.05476902 7.2738451 0.25 3.25 C0.1675 2.1775 0.085 1.105 0 0 Z " fill="#5A280D" transform="translate(167,336)"/>
<path d="M0 0 C3.36720387 1.39332574 4.9859524 2.9789286 7 6 C6.01 6.33 5.02 6.66 4 7 C0 2.25 0 2.25 0 0 Z " fill="#C97430" transform="translate(56,334)"/>
<path d="M0 0 C2.31 0.33 4.62 0.66 7 1 C7.33 1.99 7.66 2.98 8 4 C7.01 4.495 7.01 4.495 6 5 C3.98079663 3.69593116 1.98075027 2.36176581 0 1 C0 0.67 0 0.34 0 0 Z " fill="#E5D4BB" transform="translate(86,308)"/>
<path d="M0 0 C0.33 0 0.66 0 1 0 C1.12375 1.093125 1.2475 2.18625 1.375 3.3125 C1.75464801 7.07381802 1.75464801 7.07381802 4 10 C2.68 10.33 1.36 10.66 0 11 C0 7.37 0 3.74 0 0 Z " fill="#F6C891" transform="translate(485,285)"/>
<path d="M0 0 C0.66 0 1.32 0 2 0 C0.66666667 2.66666667 -0.66666667 5.33333333 -2 8 C-2.6875 6.25 -2.6875 6.25 -3 4 C-1.6875 1.75 -1.6875 1.75 0 0 Z " fill="#865436" transform="translate(49,186)"/>
</svg>
